<?xml version="1.0" encoding="utf-8"?>
<!-- Generator: Adobe Illustrator 15.0.0, SVG Export Plug-In . SVG Version: 6.00 Build 0)  -->
<!DOCTYPE svg PUBLIC "-//W3C//DTD SVG 1.1//EN" "http://www.w3.org/Graphics/SVG/1.1/DTD/svg11.dtd">
<svg version="1.1" id="Layer_1" xmlns="http://www.w3.org/2000/svg" xmlns:xlink="http://www.w3.org/1999/xlink" x="0px" y="0px"
	 width="426px" height="426px" viewBox="0 0 426 426" enable-background="new 0 0 426 426" xml:space="preserve">
<g>
	<path fill="#00B3BA" d="M425.599,213.002c0,117.411-95.192,212.594-212.6,212.594c-117.405,0-212.598-95.183-212.598-212.594
		C0.401,95.584,95.594,0.404,212.999,0.404C330.406,0.404,425.599,95.584,425.599,213.002z"/>
	<g>
		<path fill="#FFFFFF" d="M169.592,190.101c0.228-0.45-0.112-1.24-1.012-2.366c-0.899-1.123-2.171-2.251-3.798-3.378
			c-1.637-1.122-3.55-2.109-5.745-2.956c-2.195-0.842-4.539-1.267-7.012-1.267c-2.818,0-5.805,0.736-8.954,2.196
			c-3.154,1.469-5.859,3.998-8.107,7.6l-16.728,25.007v-44.094c0-4.952-0.593-9.006-1.774-12.161
			c-1.183-3.155-2.728-5.663-4.646-7.521c-1.916-1.858-4.057-3.153-6.419-3.887c-2.365-0.73-4.732-1.095-7.097-1.095
			c-3.268,0-6.165,0.477-8.701,1.433c-2.53,0.959-3.802,1.719-3.802,2.28v100.351c0,5.974,1.38,10.082,4.144,12.337
			c2.753,2.254,6.274,3.376,10.556,3.376h3.382c4.164,0,7.6-1.155,10.304-3.462s4.054-6.391,4.054-12.251V230.48l18.076,26.185
			c2.364,3.605,5.153,6.141,8.361,7.601c3.212,1.464,6.28,2.199,9.211,2.199c2.364,0,4.672-0.425,6.926-1.271
			c2.251-0.843,4.224-1.829,5.91-2.956c1.69-1.122,3.015-2.224,3.97-3.293c0.959-1.067,1.325-1.83,1.102-2.279l-24.666-34.632
			L169.592,190.101z"/>
		<path fill="#FFFFFF" d="M198.986,180.475h-3.382c-4.167,0-7.629,1.128-10.389,3.373c-2.759,2.254-4.137,6.368-4.137,12.335v54.06
			c0,5.974,1.378,10.082,4.137,12.337c2.76,2.254,6.334,3.376,10.729,3.376h3.378c4.166,0,7.574-1.155,10.219-3.462
			c2.646-2.307,3.97-6.391,3.97-12.251v-54.06c0-6.082-1.323-10.22-3.97-12.42C206.897,181.568,203.378,180.475,198.986,180.475z"/>
		<path fill="#FFFFFF" d="M310.488,189.592c-2.364-3.035-5.435-5.455-9.207-7.262c-3.776-1.8-8.36-2.704-13.768-2.704
			c-6.761,0-12.308,1.438-16.643,4.305c-4.337,2.878-7.967,6.566-10.893,11.07c-0.791-2.818-1.833-5.157-3.13-7.011
			c-1.295-1.859-2.784-3.354-4.475-4.479c-1.691-1.123-3.467-1.908-5.322-2.362c-1.857-0.45-3.745-0.674-5.66-0.674
			c-3.267,0-6.165,0.48-8.701,1.431c-2.53,0.959-3.802,1.725-3.802,2.282v66.055c0,5.974,1.379,10.082,4.144,12.337
			c2.753,2.254,6.274,3.376,10.556,3.376h3.38c4.166,0,7.602-1.122,10.307-3.376c2.704-2.255,4.055-6.363,4.055-12.337v-37.501
			c1.235-1.919,2.926-3.521,5.067-4.819c2.135-1.292,4.671-1.94,7.604-1.94c3.376,0,6.021,1.098,7.94,3.294
			c1.913,2.195,2.87,5.211,2.87,9.038v31.929c0,5.974,1.377,10.082,4.142,12.337c2.754,2.254,6.334,3.376,10.724,3.376h3.211
			c4.278,0,7.74-1.155,10.389-3.462c2.646-2.307,3.971-6.391,3.971-12.251v-37.501c0-4.395-0.537-8.589-1.607-12.587
			C314.567,196.153,312.855,192.638,310.488,189.592z"/>
		<path fill="#FFFFFF" d="M358.042,239.683c-2.196-2.197-5.771-3.293-10.724-3.293h-3.887c-9.127,0-13.686,4.562-13.686,13.685
			v2.704c0,9.122,4.559,13.687,13.686,13.687h3.887c9.344,0,14.021-4.564,14.021-13.687v-2.704
			C361.339,245.345,360.238,241.878,358.042,239.683z"/>
		<path fill="#FFFFFF" d="M209.883,144.826c-2.194-2.194-5.769-3.296-10.726-3.296h-3.885c-9.126,0-13.686,4.562-13.686,13.685v2.7
			c0,9.128,4.56,13.686,13.686,13.686h3.885c9.347,0,14.023-4.558,14.023-13.686v-2.7
			C213.181,150.482,212.078,147.021,209.883,144.826z"/>
	</g>
</g>
</svg>
